<svg xmlns="http://www.w3.org/2000/svg" width="40" height="40" viewBox="0 0 30 30" xmlns:v="https://vecta.io/nano"><path d="M9.984 1.219c-.047.023-.07.105-.047.176.012.07.773 1.863 1.688 3.984l1.652 3.855v4.031l-3.281.035-3.562.059-.27.035-1.523-1.676C2.883 9.785 2.918 9.82 2.098 9.82c-.902 0-.891.07.105 2.402l.75 1.781c-.012 0-.199.07-.422.141-.809.246-1.348.598-1.348.867 0 .281.457.574 1.312.867.293.094.445.176.434.223s-.352.832-.75 1.77c-.961 2.25-.961 2.332-.07 2.332.82 0 .785.035 2.543-1.898l1.523-1.676.27.035c.141.012 1.746.047 3.551.059l3.281.035v4.008l-1.687 3.926-1.629 4.02c.047.07.176.094.656.105.645.012.879-.047 1.113-.305.059-.059 1.98-2.73 4.277-5.93l4.172-5.824 2.941-.035c3.188-.035 3.363-.047 4.219-.352.551-.199.914-.41 1.195-.727.41-.445.41-.832 0-1.289-.293-.328-.656-.539-1.23-.738-.902-.305-.973-.305-4.16-.352l-2.965-.035-4.207-5.859-4.406-6.012c-.199-.152-.211-.164-.855-.176-.352-.012-.691.012-.727.035zm0 0" fill="rgb(92.941176%,76.862745%,9.411765%)"/></svg>