<svg xmlns="http://www.w3.org/2000/svg" xmlns:xlink="http://www.w3.org/1999/xlink" version="1.1" x="0px" y="0px" viewBox="0 0 256 256" enable-background="new 0 0 256 256" xml:space="preserve">
<metadata fill="#edc418"> Svg Vector Icons : http://www.onlinewebfonts.com/icon </metadata>
<g><g><g><path fill="#edc418" d="M85.2,10.4c-0.4,0.2-0.6,0.9-0.4,1.5c0.1,0.6,6.6,15.9,14.4,34l14.1,32.9V96v17.2l-28,0.3c-15.4,0.1-29.1,0.4-30.4,0.5l-2.3,0.3l-13-14.3c-15-16.5-14.7-16.2-21.7-16.2c-7.7,0-7.6,0.6,0.9,20.5c3.5,8.3,6.4,15.2,6.4,15.2c-0.1,0-1.7,0.6-3.6,1.2c-6.9,2.1-11.5,5.1-11.5,7.4c0,2.4,3.9,4.9,11.2,7.4c2.5,0.8,3.8,1.5,3.7,1.9c-0.1,0.4-3,7.1-6.4,15.1c-8.2,19.2-8.2,19.9-0.6,19.9c7,0,6.7,0.3,21.7-16.2l13-14.3l2.3,0.3c1.2,0.1,14.9,0.4,30.3,0.5l28,0.3V160v17.2l-14.4,33.5c-11.1,26-14.2,33.7-13.9,34.3c0.4,0.6,1.5,0.8,5.6,0.9c5.5,0.1,7.5-0.4,9.5-2.6c0.5-0.5,16.9-23.3,36.5-50.6l35.6-49.7l25.1-0.3c27.2-0.3,28.7-0.4,36-3c4.7-1.7,7.8-3.5,10.2-6.2c3.5-3.8,3.5-7.1,0-11c-2.5-2.8-5.6-4.6-10.5-6.3c-7.7-2.6-8.3-2.6-35.5-3l-25.3-0.3l-35.9-50C116,34.7,99.7,12.4,98.7,11.6c-1.7-1.3-1.8-1.4-7.3-1.5C88.4,10,85.5,10.2,85.2,10.4z"/></g></g></g>
</svg>